<?xml version="1.0" encoding="UTF-8"?>
<level>
  <owner>Fistachka</owner>
  <repo>olen</repo>
  <version>v1.0.3</version>
  <next number="1" owner="Fistachka" repo="olen2"/>
  <readme>
    <ru>0ab9d637da673054a3f0a6d3a80fe988056dc67844c825fe6d71c26218f95c73</ru>
    <en>8673b753fe9eece7a23bbc3439c8dd8fa7ed20b41e72bdb47908b564acd519e9</en>
  </readme>
  <license>b1b99f5538d1fd3702219bff50c665196dfa42f6ee755c37fe41a6178d6bc6e5</license>
  <exercise number="1">
    <scale>major</scale>
    <bpm>148</bpm>
    <lowestNote>6</lowestNote>
    <tonalities>4</tonalities>
    <video name="1.mp4" size="2652456" type="video/mp4" volume="0.5">7260c534d74784335d0e9d6f5d7ecac2c99ffab96f80fa446b536fca4a248ee7</video>
    <notes>
      <note number="1" values="38" ticks="304" durationTicks="31" ppq="96" velocity="0.789"/>
      <note number="2" values="38" ticks="353" durationTicks="40" ppq="96" velocity="0.729"/>
      <note number="3" values="58" ticks="400" durationTicks="31" ppq="96" velocity="0.794"/>
      <note number="4" values="58" ticks="448" durationTicks="28" ppq="96" velocity="0.758"/>
      <note number="5" values="58" ticks="496" durationTicks="88" ppq="96" velocity="0.712"/>
      <note number="6" values="48" ticks="599" durationTicks="31" ppq="96" velocity="0.8"/>
      <note number="7" values="48" ticks="649" durationTicks="50" ppq="96" velocity="0.8"/>
      <note number="8" values="48" ticks="672" durationTicks="95" ppq="96" velocity="0.8"/>
      <note number="9" values="48" ticks="768" durationTicks="95" ppq="96" velocity="0.8"/>
    </notes>
  </exercise>
  <exercise number="2">
    <scale>major</scale>
    <bpm>148</bpm>
    <lowestNote>6</lowestNote>
    <tonalities>4</tonalities>
    <video name="2.mp4" size="1658572" type="video/mp4" volume="0.5">9a3a7cac1efdb5215b3f408883514a9c667886236867dad0ebdb446c8743ecfd</video>
    <notes>
      <note number="1" values="68" ticks="66" durationTicks="56" ppq="96" velocity="0.837"/>
      <note number="2" values="68" ticks="139" durationTicks="61" ppq="96" velocity="0.804"/>
      <note number="3" values="58" ticks="204" durationTicks="143" ppq="96" velocity="0.837"/>
      <note number="4" values="58" ticks="288" durationTicks="95" ppq="96" velocity="0.837"/>
      <note number="5" values="58" ticks="384" durationTicks="95" ppq="96" velocity="0.837"/>
      <note number="6" values="58" ticks="480" durationTicks="95" ppq="96" velocity="0.837"/>
      <note number="7" values="58" ticks="576" durationTicks="95" ppq="96" velocity="0.837"/>
      <note number="8" values="58" ticks="672" durationTicks="95" ppq="96" velocity="0.837"/>
      <note number="9" values="58" ticks="768" durationTicks="95" ppq="96" velocity="0.837"/>
    </notes>
  </exercise>
  <exercise number="3">
    <scale>major</scale>
    <bpm>148</bpm>
    <lowestNote>6</lowestNote>
    <tonalities>4</tonalities>
    <video name="3.mp4" size="1374232" type="video/mp4" volume="0.5">a482c87920683a3f09b9aa941a9e7eab4d6c39fc792488661fd6710524e680a0</video>
    <notes>
      <note number="1" values="38" ticks="68" durationTicks="50" ppq="96" velocity="0.812"/>
      <note number="2" values="38" ticks="138" durationTicks="48" ppq="96" velocity="0.769"/>
      <note number="3" values="58" ticks="187" durationTicks="30" ppq="96" velocity="0.817"/>
      <note number="4" values="58" ticks="235" durationTicks="29" ppq="96" velocity="0.812"/>
      <note number="5" values="58" ticks="283" durationTicks="54" ppq="96" velocity="0.744"/>
      <note number="6" values="48" ticks="379" durationTicks="28" ppq="96" velocity="0.822"/>
      <note number="7" values="48" ticks="427" durationTicks="46" ppq="96" velocity="0.822"/>
      <note number="8" values="48" ticks="672" durationTicks="95" ppq="96" velocity="0.822"/>
      <note number="9" values="48" ticks="768" durationTicks="95" ppq="96" velocity="0.822"/>
    </notes>
  </exercise>
  <exercise number="4">
    <scale>major</scale>
    <bpm>148</bpm>
    <lowestNote>6</lowestNote>
    <tonalities>4</tonalities>
    <video name="4.mp4" size="1451738" type="video/mp4" volume="0.5">fd4c18cb9b16b5f9f4ae82bae339fe01e3076a663fbb313ecca6776b91cb6f8b</video>
    <notes>
      <note number="1" values="68" ticks="14" durationTicks="56" ppq="96" velocity="0.835"/>
      <note number="2" values="68" ticks="91" durationTicks="61" ppq="96" velocity="0.803"/>
      <note number="3" values="58" ticks="171" durationTicks="96" ppq="96" velocity="0.8"/>
      <note number="4" values="58" ticks="288" durationTicks="95" ppq="96" velocity="0.8"/>
      <note number="5" values="58" ticks="384" durationTicks="95" ppq="96" velocity="0.8"/>
      <note number="6" values="58" ticks="480" durationTicks="95" ppq="96" velocity="0.8"/>
      <note number="7" values="58" ticks="576" durationTicks="95" ppq="96" velocity="0.8"/>
      <note number="8" values="58" ticks="672" durationTicks="95" ppq="96" velocity="0.8"/>
      <note number="9" values="58" ticks="768" durationTicks="95" ppq="96" velocity="0.8"/>
    </notes>
  </exercise>
  <exercise number="5">
    <scale>major</scale>
    <bpm>148</bpm>
    <lowestNote>6</lowestNote>
    <tonalities>4</tonalities>
    <video name="5.mp4" size="778515" type="video/mp4" volume="0.5">3e83990771bc102491e0a84d9bafd73a56a37787c3e8956a3cb60fa825be80ce</video>
    <notes>
      <note number="1" values="38" ticks="105" durationTicks="33" ppq="96" velocity="0.811"/>
      <note number="2" values="38" ticks="154" durationTicks="31" ppq="96" velocity="0.764"/>
      <note number="3" values="38" ticks="203" durationTicks="30" ppq="96" velocity="0.811"/>
      <note number="4" values="38" ticks="251" durationTicks="32" ppq="96" velocity="0.811"/>
      <note number="5" values="38" ticks="299" durationTicks="83" ppq="96" velocity="0.74"/>
      <note number="6" values="6" ticks="385" durationTicks="31" ppq="96" velocity="0.819"/>
    </notes>
  </exercise>
  <exercise number="6">
    <scale>major</scale>
    <bpm>148</bpm>
    <lowestNote>6</lowestNote>
    <tonalities>4</tonalities>
    <video name="6.mp4" size="849097" type="video/mp4" volume="0.5">fb12426fa1212bbeebd66d329d54b271d7885a4ddda878b79e413b7153831715</video>
    <notes>
      <note number="1" values="28" ticks="44" durationTicks="66" ppq="96" velocity="0.824"/>
      <note number="2" values="28" ticks="132" durationTicks="82" ppq="96" velocity="0.799"/>
      <note number="3" values="18" ticks="220" durationTicks="106" ppq="96" velocity="0.827"/>
      <note number="4" values="18" ticks="288" durationTicks="95" ppq="96" velocity="0.827"/>
      <note number="5" values="18" ticks="384" durationTicks="95" ppq="96" velocity="0.827"/>
      <note number="6" values="18" ticks="480" durationTicks="95" ppq="96" velocity="0.827"/>
      <note number="7" values="18" ticks="576" durationTicks="95" ppq="96" velocity="0.827"/>
    </notes>
  </exercise>
  <exercise number="7">
    <scale>major</scale>
    <bpm>148</bpm>
    <lowestNote>6</lowestNote>
    <tonalities>4</tonalities>
    <video name="7.mp4" size="808426" type="video/mp4" volume="0.5">cb4ab293e970466290f32dc147c1c3ca05cee16633f2db14cd76a4ef0e912047</video>
    <notes>
      <note number="1" values="6" ticks="59" durationTicks="28" ppq="96" velocity="0.794"/>
      <note number="2" values="7" ticks="107" durationTicks="33" ppq="96" velocity="0.772"/>
      <note number="3" values="18" ticks="154" durationTicks="33" ppq="96" velocity="0.817"/>
      <note number="4" values="28" ticks="205" durationTicks="26" ppq="96" velocity="0.794"/>
      <note number="5" values="18" ticks="241" durationTicks="37" ppq="96" velocity="0.774"/>
      <note number="6" values="6" ticks="290" durationTicks="26" ppq="96" velocity="0.747"/>
    </notes>
  </exercise>
  <exercise number="8">
    <scale>major</scale>
    <bpm>148</bpm>
    <lowestNote>6</lowestNote>
    <tonalities>4</tonalities>
    <video name="8.mp4" size="792786" type="video/mp4" volume="0.5">708bf735a8d2c369f3aa52336250daddfa002f5e96306ff1b74e13a009c18111</video>
    <notes>
      <note number="1" values="18" ticks="48" durationTicks="73" ppq="96" velocity="0.829"/>
      <note number="2" values="7" ticks="144" durationTicks="71" ppq="96" velocity="0.782"/>
      <note number="3" values="18" ticks="240" durationTicks="79" ppq="96" velocity="0.819"/>
      <note number="4" values="18" ticks="288" durationTicks="95" ppq="96" velocity="0.819"/>
      <note number="5" values="18" ticks="384" durationTicks="95" ppq="96" velocity="0.819"/>
      <note number="6" values="18" ticks="480" durationTicks="95" ppq="96" velocity="0.819"/>
      <note number="7" values="18" ticks="576" durationTicks="95" ppq="96" velocity="0.819"/>
    </notes>
  </exercise>
  <exercise number="9">
    <scale>major</scale>
    <bpm>148</bpm>
    <lowestNote>48</lowestNote>
    <tonalities>7</tonalities>
    <video name="9.mp4" size="995724" type="video/mp4" volume="0.5">9e929b745e23b204f0e979688efaa37d9f04f2385e9cf5245d9c8217b15b350a</video>
    <notes>
      <note number="1" values="68" ticks="65" durationTicks="52" ppq="96" velocity="0.747"/>
      <note number="2" values="68" ticks="140" durationTicks="56" ppq="96" velocity="0.842"/>
      <note number="3" values="488" ticks="207" durationTicks="91" ppq="96" velocity="0.787"/>
      <note number="4" values="288" ticks="394" durationTicks="74" ppq="96" velocity="0.756"/>
      <note number="5" values="58" ticks="485" durationTicks="92" ppq="96" velocity="0.834"/>
      <note number="6" values="388" ticks="581" durationTicks="96" ppq="96" velocity="0.757"/>
      <note number="7" values="388" ticks="576" durationTicks="95" ppq="96" velocity="0.757"/>
    </notes>
  </exercise>
  <exercise number="10">
    <scale>major</scale>
    <bpm>148</bpm>
    <lowestNote>48</lowestNote>
    <tonalities>7</tonalities>
    <video name="10.mp4" size="874926" type="video/mp4" volume="0.5">c047188990061e29efc95e6b647afd6b16bb08962738d537f7fd5334dc43f75c</video>
    <notes>
      <note number="1" values="188" ticks="61" durationTicks="76" ppq="96" velocity="0.74"/>
      <note number="2" values="48" ticks="169" durationTicks="81" ppq="96" velocity="0.835"/>
      <note number="3" values="288" ticks="312" durationTicks="91" ppq="96" velocity="0.78"/>
      <note number="4" values="388" ticks="479" durationTicks="45" ppq="96" velocity="0.782"/>
      <note number="5" values="288" ticks="529" durationTicks="46" ppq="96" velocity="0.764"/>
      <note number="6" values="188" ticks="609" durationTicks="95" ppq="96" velocity="0.827"/>
      <note number="7" values="188" ticks="576" durationTicks="95" ppq="96" velocity="0.827"/>
    </notes>
  </exercise>
  <exercise number="11">
    <scale>major</scale>
    <bpm>148</bpm>
    <lowestNote>48</lowestNote>
    <tonalities>7</tonalities>
    <video name="11.mp4" size="1728663" type="video/mp4" volume="0.5">6e4c6bd0b32d3ba099d899103142ad3304d005cc2bcbc5ec92792efc05849df2</video>
    <notes>
      <note number="1" values="58" ticks="183" durationTicks="94" ppq="96" velocity="0.811"/>
      <note number="2" values="48" ticks="287" durationTicks="27" ppq="96" velocity="0.764"/>
      <note number="3" values="48" ticks="335" durationTicks="26" ppq="96" velocity="0.811"/>
      <note number="4" values="48" ticks="385" durationTicks="97" ppq="96" velocity="0.811"/>
      <note number="5" values="48" ticks="384" durationTicks="95" ppq="96" velocity="0.811"/>
      <note number="6" values="48" ticks="480" durationTicks="95" ppq="96" velocity="0.811"/>
      <note number="7" values="48" ticks="576" durationTicks="95" ppq="96" velocity="0.811"/>
      <note number="8" values="48" ticks="672" durationTicks="95" ppq="96" velocity="0.811"/>
      <note number="9" values="48" ticks="768" durationTicks="95" ppq="96" velocity="0.811"/>
      <note number="10" values="48" ticks="864" durationTicks="95" ppq="96" velocity="0.811"/>
    </notes>
  </exercise>
</level>
